<svg xmlns="http://www.w3.org/2000/svg" width="18.52" height="18.496" viewBox="0 0 18.52 18.496">
  <g id="Calque_2" data-name="Calque 2" transform="translate(0 -21.774)">
    <g id="Calque_1" data-name="Calque 1" transform="translate(0 21.774)">
      <g id="Groupe_3" data-name="Groupe 3" transform="translate(0 0)">
        <path id="Tracé_3" data-name="Tracé 3" d="M17.561,35.273q-1.584-1.053-3.179-2.087a1.8,1.8,0,0,0-2.428.441,6.467,6.467,0,0,1-.557.635,1.048,1.048,0,0,1-.969.288,2.755,2.755,0,0,1-1.066-.462,12.674,12.674,0,0,1-2.529-2.329,5.307,5.307,0,0,1-1.024-1.612A1.174,1.174,0,0,1,6.1,28.817a6.079,6.079,0,0,1,.576-.511A1.8,1.8,0,0,0,7.017,25.8c-.684-1-1.332-2.016-2-3.024a3.447,3.447,0,0,0-.343-.448,1.485,1.485,0,0,0-1.842-.387,5.058,5.058,0,0,0-.9.513A4.476,4.476,0,0,0,0,26.205c.022.228.036.53.081.827A9.544,9.544,0,0,0,1.169,30.1a20.98,20.98,0,0,0,3.385,4.548,23.207,23.207,0,0,0,5.264,4.262,10.563,10.563,0,0,0,3.024,1.211,4.7,4.7,0,0,0,3.516-.442,4.5,4.5,0,0,0,2.087-2.525,1.373,1.373,0,0,0-.337-1.429,3.127,3.127,0,0,0-.547-.454Zm-.022,2.258a3.8,3.8,0,0,1-3.425,2.045A8.55,8.55,0,0,1,10.3,38.385a20.247,20.247,0,0,1-4.243-3.229,23.507,23.507,0,0,1-3.949-4.82A9.935,9.935,0,0,1,.792,27.094a3.954,3.954,0,0,1,2.045-4.409,1.344,1.344,0,0,1,.746-.225.737.737,0,0,1,.526.255,6.7,6.7,0,0,1,.439.588q.971,1.468,1.933,2.94a1.083,1.083,0,0,1-.243,1.524c-.194.157-.39.315-.576.484A1.82,1.82,0,0,0,5.134,30.3a3.566,3.566,0,0,0,.377.817,12.4,12.4,0,0,0,3.647,3.648,2.736,2.736,0,0,0,1.44.488,1.646,1.646,0,0,0,1.211-.448,6.873,6.873,0,0,0,.68-.752,1.106,1.106,0,0,1,1.534-.279q1.554,1.008,3.1,2.034C17.917,36.336,18.023,36.716,17.539,37.531Z" transform="translate(0 -21.774)" fill="#fff"/>
      </g>
    </g>
  </g>
</svg>
