<svg xmlns="http://www.w3.org/2000/svg" width="20.335" height="15.409" viewBox="0 0 20.335 15.409">
  <g id="envelope_copie" data-name="envelope copie" transform="translate(0.5 -55.32)">
    <g id="Groupe_40" data-name="Groupe 40" transform="translate(0 54.82)">
      <path id="Tracé_12" data-name="Tracé 12" d="M1.856,59.5q.367.259,2.212,1.538t2.827,1.969q.108.076.458.329t.583.41q.232.156.561.351a3.255,3.255,0,0,0,.62.291,1.71,1.71,0,0,0,.539.1h.022a1.711,1.711,0,0,0,.54-.1,3.259,3.259,0,0,0,.62-.291q.329-.194.561-.351t.583-.41q.351-.254.459-.329L17.49,59.5a5.126,5.126,0,0,0,1.316-1.327,2.849,2.849,0,0,0,.529-1.629,1.741,1.741,0,0,0-1.726-1.726H1.726a1.541,1.541,0,0,0-1.279.561A2.178,2.178,0,0,0,0,56.784a2.52,2.52,0,0,0,.593,1.473A5.356,5.356,0,0,0,1.856,59.5Z" transform="translate(0 -53.82)" fill="none" stroke="#fff" stroke-width="1"/>
      <path id="Tracé_13" data-name="Tracé 13" d="M18.256,185.487q-3.539,2.678-5.373,4.163-.615.506-1,.79a5.945,5.945,0,0,1-1.02.579,2.83,2.83,0,0,1-1.187.3H9.657a2.831,2.831,0,0,1-1.187-.3,5.948,5.948,0,0,1-1.02-.579q-.383-.283-1-.79Q5,188.455,1.09,185.487A5.95,5.95,0,0,1,0,184.437v9.58a1.974,1.974,0,0,0,.507,1.363,1.58,1.58,0,0,0,1.219.567H17.609a1.58,1.58,0,0,0,1.219-.567,1.974,1.974,0,0,0,.507-1.363v-9.58A6.205,6.205,0,0,1,18.256,185.487Z" transform="translate(0 -180.539)" fill="none" stroke="#fff" stroke-width="1"/>
    </g>
  </g>
</svg>
