<svg xmlns="http://www.w3.org/2000/svg" width="22.593" height="27.361" viewBox="0 0 22.593 27.361">
  <g id="noun-bag-4436585" transform="translate(-87.681 -31.012)">
    <path id="Tracé_4" data-name="Tracé 4" d="M150.281,38.655a1.3,1.3,0,1,0,1.746,1.2l.546-1.055h6.948l.4.8a.711.711,0,0,0-.036.255,1.292,1.292,0,1,0,2-1.055h2.4l.946,17.5H146.789l.909-17.5h1.382l1.019-2.11h-2.583a2.066,2.066,0,0,0-1.892,2.074l-.909,17.789a2.094,2.094,0,0,0,2.146,1.819h18.517a2.035,2.035,0,0,0,1.928-2.11l-.909-17.28c-.073-1.492-.8-2.328-2.328-2.292H153.592l1.346-2.583c.509-1.128,1.528-1.455,2.074-.218l.909,1.819h2.328l-1.6-3.274a3.094,3.094,0,0,0-2.656-1.419,2.954,2.954,0,0,0-2.874,1.892l-2.837,5.748Z" transform="translate(-57.034 0)" fill="#fff" fill-rule="evenodd"/>
  </g>
</svg>
