<svg xmlns="http://www.w3.org/2000/svg" width="24.198" height="25.866" viewBox="0 0 24.198 25.866">
  <g id="noun-inventory-3803005" transform="translate(-80.811 -8.75)">
    <path id="Tracé_10" data-name="Tracé 10" d="M108.349,12.088h-3.338V8.75h3.338Zm-5.424,3.755a1.255,1.255,0,0,1,1.252-1.252H114.19V9.167a.417.417,0,0,0-.417-.417h-4.589V12.5a.417.417,0,0,1-.417.417h-4.172a.417.417,0,0,1-.417-.417V8.75H99.588a.417.417,0,0,0-.417.417V22.1h3.755Zm8.761,2.92V15.425h-2.5v3.338ZM109.6,24.6h7.51V15.842a.417.417,0,0,0-.417-.417h-4.172V19.18a.417.417,0,0,1-.417.417h-3.338a.417.417,0,0,1-.417-.417V15.425h-4.172a.417.417,0,0,0-.417.417V22.1h4.589a1.255,1.255,0,0,1,1.252,1.252Zm5.841,4.589V25.438h-2.5v3.755Zm4.589-3.755h-3.755V29.61a.417.417,0,0,1-.417.417h-3.338a.417.417,0,0,1-.417-.417V25.438h-2.5v9.178h10.43a.417.417,0,0,0,.417-.417V25.855a.417.417,0,0,0-.417-.417ZM100.839,26.69h3.338V22.935h-3.338Zm7.51-3.755h-3.338v4.172a.417.417,0,0,1-.417.417h-4.172a.417.417,0,0,1-.417-.417V22.935H96.667a.417.417,0,0,0-.417.417V34.2a.417.417,0,0,0,.417.417h12.1V23.352a.417.417,0,0,0-.417-.417Z" transform="translate(-15.439 0)" fill="#be0a1c"/>
  </g>
</svg>
