<svg xmlns="http://www.w3.org/2000/svg" width="28.531" height="22.642" viewBox="0 0 28.531 22.642">
  <g id="noun-dishes-2317143" transform="translate(-98 -80.016)">
    <path id="Tracé_9" data-name="Tracé 9" d="M117.615,101.511v1.148h-10.7v-1.148c-4.671-1.435-8.3-4.727-8.916-8.9l14.266.029,14.266-.029c-.615,4.173-4.245,7.466-8.916,8.9Zm5.35-15.362h-21.4a7.891,7.891,0,0,0,2.9,5.681h15.6a7.891,7.891,0,0,0,2.9-5.681Zm-6.687-.783h-8.024a6.159,6.159,0,0,1-2.22-4.816c0-.18.009-.357.024-.533h13.229a2.321,2.321,0,0,1,1.686.709,2.3,2.3,0,0,1,.64,1.7,2.337,2.337,0,0,1-2.366,2.21H117a5.88,5.88,0,0,1-.719.727Zm1.493-1.842h1.475A1.241,1.241,0,0,0,120.5,82.38a1.2,1.2,0,0,0-1.2-1.254h-.8a6.81,6.81,0,0,1-.732,2.4Z" fill="#be0a1c"/>
  </g>
</svg>
