<svg id="user_copie_2" data-name="user copie 2" xmlns="http://www.w3.org/2000/svg" width="13.209" height="15.832" viewBox="0 0 13.209 15.832">
  <path id="Tracé_41" data-name="Tracé 41" d="M90.845,7.627a3.69,3.69,0,0,0,2.7-1.117,3.69,3.69,0,0,0,1.117-2.7,3.69,3.69,0,0,0-1.117-2.7,3.812,3.812,0,0,0-5.392,0,3.69,3.69,0,0,0-1.117,2.7,3.69,3.69,0,0,0,1.117,2.7A3.691,3.691,0,0,0,90.845,7.627Zm0,0" transform="translate(-84.34 0)" fill="#fff"/>
  <path id="Tracé_42" data-name="Tracé 42" d="M13.177,251.843a9.418,9.418,0,0,0-.128-1,7.881,7.881,0,0,0-.246-1.006,4.967,4.967,0,0,0-.413-.938,3.54,3.54,0,0,0-.624-.813,2.749,2.749,0,0,0-.9-.563,3.1,3.1,0,0,0-1.143-.207,1.161,1.161,0,0,0-.62.263c-.186.121-.4.261-.646.416a3.7,3.7,0,0,1-.835.368,3.244,3.244,0,0,1-2.044,0A3.691,3.691,0,0,1,4.747,248c-.24-.154-.458-.294-.646-.417a1.159,1.159,0,0,0-.62-.263,3.092,3.092,0,0,0-1.143.207,2.747,2.747,0,0,0-.9.563,3.54,3.54,0,0,0-.623.812,4.978,4.978,0,0,0-.413.938,7.9,7.9,0,0,0-.246,1.006,9.385,9.385,0,0,0-.128,1c-.021.3-.032.617-.032.935a2.629,2.629,0,0,0,.781,1.989,2.811,2.811,0,0,0,2.012.734h7.623a2.81,2.81,0,0,0,2.012-.734,2.628,2.628,0,0,0,.781-1.989C13.209,252.459,13.2,252.145,13.177,251.843Zm0,0" transform="translate(0 -239.669)" fill="#fff"/>
</svg>
